<svg width="500" height="500" viewBox="0 0 500 500" fill="none" xmlns="http://www.w3.org/2000/svg">
<g filter="url(#filter0_i_2529_24)">
<g clip-path="url(#clip0_2529_24)">
<rect width="500" height="500" rx="150" fill="#FF5D0F"/>
<g filter="url(#filter1_di_2529_24)">
<rect y="135" width="373" height="400" rx="100" fill="#FFC01E"/>
</g>
<g filter="url(#filter2_d_2529_24)">
<rect x="100" y="247" width="400" height="400" rx="100" fill="#07080A"/>
<g filter="url(#filter3_i_2529_24)">
<rect width="18" height="79" transform="matrix(-1 0 0 1 298 247)" fill="#FF2D55"/>
</g>
<path d="M289 309L298.526 327H279.474L289 309Z" fill="#07080A"/>
<path d="M163.568 401.68L164.304 399.472L176.656 404.72V406.992L164.304 412.24L163.568 410.032L173.712 405.84L163.568 401.68ZM179.568 401.68L180.304 399.472L192.656 404.72V406.992L180.304 412.24L179.568 410.032L189.712 405.84L179.568 401.68ZM195.568 401.68L196.304 399.472L208.656 404.72V406.992L196.304 412.24L195.568 410.032L205.712 405.84L195.568 401.68ZM237.936 394.192H240.56V414H237.936V404.784H230.064V414H227.44V394.192H230.064V402.544H237.936V394.192ZM250.288 398.8C252.293 398.8 253.84 399.429 254.928 400.688C256.016 401.925 256.56 403.813 256.56 406.352V407.28H245.936C246.043 408.816 246.544 409.989 247.44 410.8C248.357 411.589 249.637 411.984 251.28 411.984C252.219 411.984 253.019 411.909 253.68 411.76C254.341 411.611 254.843 411.451 255.184 411.28L255.536 413.52C255.216 413.691 254.64 413.872 253.808 414.064C252.976 414.256 252.037 414.352 250.992 414.352C249.712 414.352 248.581 414.16 247.6 413.776C246.64 413.371 245.84 412.827 245.2 412.144C244.56 411.461 244.08 410.651 243.76 409.712C243.44 408.752 243.28 407.717 243.28 406.608C243.28 405.285 243.483 404.133 243.888 403.152C244.293 402.171 244.827 401.36 245.488 400.72C246.149 400.08 246.896 399.6 247.728 399.28C248.56 398.96 249.413 398.8 250.288 398.8ZM253.872 405.136C253.872 403.877 253.541 402.885 252.88 402.16C252.219 401.413 251.344 401.04 250.256 401.04C249.637 401.04 249.072 401.157 248.56 401.392C248.069 401.627 247.643 401.936 247.28 402.32C246.917 402.704 246.629 403.141 246.416 403.632C246.203 404.123 246.064 404.624 246 405.136H253.872ZM268.816 414.352C267.877 414.352 267.099 414.224 266.48 413.968C265.861 413.712 265.371 413.328 265.008 412.816C264.645 412.304 264.389 411.675 264.24 410.928C264.091 410.16 264.016 409.275 264.016 408.272V394.224H259.728V391.984H266.64V408.272C266.64 409.019 266.683 409.627 266.768 410.096C266.875 410.565 267.024 410.949 267.216 411.248C267.429 411.525 267.685 411.717 267.984 411.824C268.283 411.931 268.635 411.984 269.04 411.984C269.659 411.984 270.235 411.909 270.768 411.76C271.301 411.611 271.717 411.451 272.016 411.28L272.4 413.52C272.272 413.584 272.091 413.669 271.856 413.776C271.621 413.861 271.344 413.947 271.024 414.032C270.704 414.117 270.352 414.192 269.968 414.256C269.605 414.32 269.221 414.352 268.816 414.352ZM284.816 414.352C283.877 414.352 283.099 414.224 282.48 413.968C281.861 413.712 281.371 413.328 281.008 412.816C280.645 412.304 280.389 411.675 280.24 410.928C280.091 410.16 280.016 409.275 280.016 408.272V394.224H275.728V391.984H282.64V408.272C282.64 409.019 282.683 409.627 282.768 410.096C282.875 410.565 283.024 410.949 283.216 411.248C283.429 411.525 283.685 411.717 283.984 411.824C284.283 411.931 284.635 411.984 285.04 411.984C285.659 411.984 286.235 411.909 286.768 411.76C287.301 411.611 287.717 411.451 288.016 411.28L288.4 413.52C288.272 413.584 288.091 413.669 287.856 413.776C287.621 413.861 287.344 413.947 287.024 414.032C286.704 414.117 286.352 414.192 285.968 414.256C285.605 414.32 285.221 414.352 284.816 414.352ZM304.72 406.576C304.72 407.749 304.549 408.816 304.208 409.776C303.888 410.715 303.429 411.525 302.832 412.208C302.235 412.891 301.52 413.424 300.688 413.808C299.856 414.171 298.949 414.352 297.968 414.352C297.008 414.352 296.112 414.171 295.28 413.808C294.469 413.424 293.765 412.891 293.168 412.208C292.571 411.525 292.101 410.715 291.76 409.776C291.44 408.816 291.28 407.749 291.28 406.576C291.28 405.403 291.44 404.336 291.76 403.376C292.101 402.416 292.571 401.605 293.168 400.944C293.765 400.261 294.469 399.739 295.28 399.376C296.112 398.992 297.008 398.8 297.968 398.8C298.949 398.8 299.856 398.992 300.688 399.376C301.52 399.739 302.235 400.261 302.832 400.944C303.429 401.605 303.888 402.416 304.208 403.376C304.549 404.336 304.72 405.403 304.72 406.576ZM302 406.576C302 404.891 301.637 403.568 300.912 402.608C300.187 401.627 299.205 401.136 297.968 401.136C296.752 401.136 295.781 401.627 295.056 402.608C294.352 403.568 294 404.891 294 406.576C294 408.24 294.352 409.563 295.056 410.544C295.781 411.504 296.752 411.984 297.968 411.984C299.205 411.984 300.187 411.504 300.912 410.544C301.637 409.563 302 408.24 302 406.576ZM310.768 416.528C311.152 416.443 311.525 416.357 311.888 416.272C312.272 416.187 312.624 416.059 312.944 415.888C313.264 415.739 313.552 415.536 313.808 415.28C314.064 415.045 314.267 414.715 314.416 414.288C313.733 414.224 313.232 413.968 312.912 413.52C312.613 413.051 312.464 412.592 312.464 412.144C312.464 411.291 312.699 410.651 313.168 410.224C313.659 409.776 314.213 409.552 314.832 409.552C315.621 409.552 316.219 409.84 316.624 410.416C317.029 410.971 317.232 411.653 317.232 412.464C317.232 413.083 317.104 413.723 316.848 414.384C316.613 415.067 316.24 415.696 315.728 416.272C315.237 416.869 314.619 417.371 313.872 417.776C313.125 418.203 312.24 418.48 311.216 418.608L310.768 416.528ZM348.976 414C348.656 413.275 348.379 412.613 348.144 412.016C347.909 411.419 347.675 410.821 347.44 410.224C347.227 409.627 347.003 409.008 346.768 408.368C346.555 407.707 346.299 406.96 346 406.128C345.701 406.96 345.435 407.707 345.2 408.368C344.965 409.008 344.731 409.627 344.496 410.224C344.283 410.821 344.048 411.419 343.792 412.016C343.557 412.613 343.28 413.275 342.96 414H340.976C340.379 411.376 339.877 408.784 339.472 406.224C339.088 403.643 338.8 401.285 338.608 399.152H341.104C341.168 399.984 341.232 400.805 341.296 401.616C341.381 402.405 341.477 403.237 341.584 404.112C341.691 404.987 341.808 405.936 341.936 406.96C342.085 407.984 342.245 409.136 342.416 410.416C342.757 409.563 343.045 408.816 343.28 408.176C343.515 407.536 343.728 406.928 343.92 406.352C344.112 405.776 344.293 405.189 344.464 404.592C344.656 403.995 344.859 403.323 345.072 402.576H347.056C347.269 403.323 347.461 403.995 347.632 404.592C347.803 405.189 347.984 405.776 348.176 406.352C348.368 406.928 348.571 407.536 348.784 408.176C348.997 408.816 349.264 409.552 349.584 410.384C349.776 409.211 349.947 408.123 350.096 407.12C350.245 406.117 350.373 405.179 350.48 404.304C350.587 403.408 350.683 402.544 350.768 401.712C350.853 400.88 350.928 400.027 350.992 399.152H353.392C353.285 400.219 353.157 401.36 353.008 402.576C352.859 403.792 352.677 405.04 352.464 406.32C352.251 407.6 352.016 408.901 351.76 410.224C351.504 411.525 351.237 412.784 350.96 414H348.976ZM368.72 406.576C368.72 407.749 368.549 408.816 368.208 409.776C367.888 410.715 367.429 411.525 366.832 412.208C366.235 412.891 365.52 413.424 364.688 413.808C363.856 414.171 362.949 414.352 361.968 414.352C361.008 414.352 360.112 414.171 359.28 413.808C358.469 413.424 357.765 412.891 357.168 412.208C356.571 411.525 356.101 410.715 355.76 409.776C355.44 408.816 355.28 407.749 355.28 406.576C355.28 405.403 355.44 404.336 355.76 403.376C356.101 402.416 356.571 401.605 357.168 400.944C357.765 400.261 358.469 399.739 359.28 399.376C360.112 398.992 361.008 398.8 361.968 398.8C362.949 398.8 363.856 398.992 364.688 399.376C365.52 399.739 366.235 400.261 366.832 400.944C367.429 401.605 367.888 402.416 368.208 403.376C368.549 404.336 368.72 405.403 368.72 406.576ZM366 406.576C366 404.891 365.637 403.568 364.912 402.608C364.187 401.627 363.205 401.136 361.968 401.136C360.752 401.136 359.781 401.627 359.056 402.608C358.352 403.568 358 404.891 358 406.576C358 408.24 358.352 409.563 359.056 410.544C359.781 411.504 360.752 411.984 361.968 411.984C363.205 411.984 364.187 411.504 364.912 410.544C365.637 409.563 366 408.24 366 406.576ZM373.424 414V399.952C375.6 399.205 377.797 398.832 380.016 398.832C380.699 398.832 381.349 398.864 381.968 398.928C382.587 398.971 383.269 399.077 384.016 399.248L383.536 401.584C382.853 401.392 382.245 401.275 381.712 401.232C381.2 401.168 380.635 401.136 380.016 401.136C378.715 401.136 377.392 401.317 376.048 401.68V414H373.424ZM396.816 414.352C395.877 414.352 395.099 414.224 394.48 413.968C393.861 413.712 393.371 413.328 393.008 412.816C392.645 412.304 392.389 411.675 392.24 410.928C392.091 410.16 392.016 409.275 392.016 408.272V394.224H387.728V391.984H394.64V408.272C394.64 409.019 394.683 409.627 394.768 410.096C394.875 410.565 395.024 410.949 395.216 411.248C395.429 411.525 395.685 411.717 395.984 411.824C396.283 411.931 396.635 411.984 397.04 411.984C397.659 411.984 398.235 411.909 398.768 411.76C399.301 411.611 399.717 411.451 400.016 411.28L400.4 413.52C400.272 413.584 400.091 413.669 399.856 413.776C399.621 413.861 399.344 413.947 399.024 414.032C398.704 414.117 398.352 414.192 397.968 414.256C397.605 414.32 397.221 414.352 396.816 414.352ZM413.072 402.288C412.773 402.011 412.336 401.755 411.76 401.52C411.184 401.264 410.587 401.136 409.968 401.136C409.264 401.136 408.656 401.275 408.144 401.552C407.653 401.829 407.248 402.213 406.928 402.704C406.608 403.173 406.373 403.749 406.224 404.432C406.075 405.093 406 405.808 406 406.576C406 408.304 406.405 409.637 407.216 410.576C408.027 411.515 409.083 411.984 410.384 411.984C411.045 411.984 411.6 411.952 412.048 411.888C412.517 411.824 412.859 411.76 413.072 411.696V402.288ZM413.072 392.272L415.728 391.824V413.584C415.152 413.755 414.416 413.925 413.52 414.096C412.624 414.267 411.579 414.352 410.384 414.352C409.317 414.352 408.347 414.171 407.472 413.808C406.597 413.445 405.851 412.933 405.232 412.272C404.613 411.589 404.133 410.768 403.792 409.808C403.451 408.848 403.28 407.771 403.28 406.576C403.28 405.424 403.419 404.379 403.696 403.44C403.995 402.48 404.421 401.659 404.976 400.976C405.531 400.293 406.192 399.76 406.96 399.376C407.749 398.992 408.645 398.8 409.648 398.8C410.437 398.8 411.131 398.896 411.728 399.088C412.325 399.28 412.773 399.483 413.072 399.696V392.272ZM427.376 399.568C427.376 400.357 427.365 401.083 427.344 401.744C427.323 402.405 427.28 403.035 427.216 403.632C427.173 404.229 427.12 404.827 427.056 405.424C426.992 406 426.928 406.608 426.864 407.248H425.04C424.976 406.608 424.912 406 424.848 405.424C424.784 404.827 424.72 404.229 424.656 403.632C424.613 403.035 424.581 402.405 424.56 401.744C424.539 401.083 424.528 400.357 424.528 399.568V394.192H427.376V399.568ZM425.936 414.384C425.36 414.384 424.859 414.192 424.432 413.808C424.005 413.403 423.792 412.869 423.792 412.208C423.792 411.547 424.005 411.024 424.432 410.64C424.859 410.235 425.36 410.032 425.936 410.032C426.533 410.032 427.035 410.235 427.44 410.64C427.867 411.024 428.08 411.547 428.08 412.208C428.08 412.869 427.867 413.403 427.44 413.808C427.035 414.192 426.533 414.384 425.936 414.384Z" fill="#34C759"/>
</g>
<circle cx="295" cy="194" r="15" fill="black"/>
</g>
</g>
<defs>
<filter id="filter0_i_2529_24" x="0" y="0" width="504" height="530" filterUnits="userSpaceOnUse" color-interpolation-filters="sRGB">
<feFlood flood-opacity="0" result="BackgroundImageFix"/>
<feBlend mode="normal" in="SourceGraphic" in2="BackgroundImageFix" result="shape"/>
<feColorMatrix in="SourceAlpha" type="matrix" values="0 0 0 0 0 0 0 0 0 0 0 0 0 0 0 0 0 0 127 0" result="hardAlpha"/>
<feMorphology radius="20" operator="dilate" in="SourceAlpha" result="effect1_innerShadow_2529_24"/>
<feOffset dx="4" dy="42"/>
<feGaussianBlur stdDeviation="25"/>
<feComposite in2="hardAlpha" operator="arithmetic" k2="-1" k3="1"/>
<feColorMatrix type="matrix" values="0 0 0 0 1 0 0 0 0 0 0 0 0 0 0 0 0 0 0.4 0"/>
<feBlend mode="normal" in2="shape" result="effect1_innerShadow_2529_24"/>
</filter>
<filter id="filter1_di_2529_24" x="-60" y="75" width="493" height="520" filterUnits="userSpaceOnUse" color-interpolation-filters="sRGB">
<feFlood flood-opacity="0" result="BackgroundImageFix"/>
<feColorMatrix in="SourceAlpha" type="matrix" values="0 0 0 0 0 0 0 0 0 0 0 0 0 0 0 0 0 0 127 0" result="hardAlpha"/>
<feMorphology radius="30" operator="dilate" in="SourceAlpha" result="effect1_dropShadow_2529_24"/>
<feOffset/>
<feGaussianBlur stdDeviation="15"/>
<feComposite in2="hardAlpha" operator="out"/>
<feColorMatrix type="matrix" values="0 0 0 0 1 0 0 0 0 0 0 0 0 0 0 0 0 0 0.52 0"/>
<feBlend mode="color-burn" in2="BackgroundImageFix" result="effect1_dropShadow_2529_24"/>
<feBlend mode="normal" in="SourceGraphic" in2="effect1_dropShadow_2529_24" result="shape"/>
<feColorMatrix in="SourceAlpha" type="matrix" values="0 0 0 0 0 0 0 0 0 0 0 0 0 0 0 0 0 0 127 0" result="hardAlpha"/>
<feMorphology radius="20" operator="erode" in="SourceAlpha" result="effect2_innerShadow_2529_24"/>
<feOffset/>
<feGaussianBlur stdDeviation="10"/>
<feComposite in2="hardAlpha" operator="arithmetic" k2="-1" k3="1"/>
<feColorMatrix type="matrix" values="0 0 0 0 1 0 0 0 0 0.752941 0 0 0 0 0.117647 0 0 0 0.5 0"/>
<feBlend mode="overlay" in2="shape" result="effect2_innerShadow_2529_24"/>
</filter>
<filter id="filter2_d_2529_24" x="40" y="187" width="520" height="520" filterUnits="userSpaceOnUse" color-interpolation-filters="sRGB">
<feFlood flood-opacity="0" result="BackgroundImageFix"/>
<feColorMatrix in="SourceAlpha" type="matrix" values="0 0 0 0 0 0 0 0 0 0 0 0 0 0 0 0 0 0 127 0" result="hardAlpha"/>
<feMorphology radius="30" operator="dilate" in="SourceAlpha" result="effect1_dropShadow_2529_24"/>
<feOffset/>
<feGaussianBlur stdDeviation="15"/>
<feComposite in2="hardAlpha" operator="out"/>
<feColorMatrix type="matrix" values="0 0 0 0 0 0 0 0 0 0 0 0 0 0 0 0 0 0 0.6 0"/>
<feBlend mode="overlay" in2="BackgroundImageFix" result="effect1_dropShadow_2529_24"/>
<feBlend mode="normal" in="SourceGraphic" in2="effect1_dropShadow_2529_24" result="shape"/>
</filter>
<filter id="filter3_i_2529_24" x="280" y="247" width="18" height="83" filterUnits="userSpaceOnUse" color-interpolation-filters="sRGB">
<feFlood flood-opacity="0" result="BackgroundImageFix"/>
<feBlend mode="normal" in="SourceGraphic" in2="BackgroundImageFix" result="shape"/>
<feColorMatrix in="SourceAlpha" type="matrix" values="0 0 0 0 0 0 0 0 0 0 0 0 0 0 0 0 0 0 127 0" result="hardAlpha"/>
<feOffset dy="4"/>
<feGaussianBlur stdDeviation="2"/>
<feComposite in2="hardAlpha" operator="arithmetic" k2="-1" k3="1"/>
<feColorMatrix type="matrix" values="0 0 0 0 0 0 0 0 0 0 0 0 0 0 0 0 0 0 0.25 0"/>
<feBlend mode="normal" in2="shape" result="effect1_innerShadow_2529_24"/>
</filter>
<clipPath id="clip0_2529_24">
<rect width="500" height="500" rx="150" fill="white"/>
</clipPath>
</defs>
</svg>
